<svg width="200" height="200" viewBox="0 0 200 200" fill="none" xmlns="http://www.w3.org/2000/svg">
  <!-- 원형 테두리 -->
  <circle cx="100" cy="100" r="90" stroke="#455A64" stroke-width="6" fill="#FAFAFA" />
  
  <!-- 저울대 -->
  <rect x="50" y="90" width="100" height="6" fill="#455A64" />
  
  <!-- 저울 중앙 기둥 -->
  <rect x="97" y="90" width="6" height="45" fill="#455A64" />
  
  <!-- 저울 받침대 -->
  <path d="M85 135 L115 135 L110 145 L90 145 Z" fill="#455A64" />
  <path d="M90 145 L110 145 L105 155 L95 155 Z" fill="#455A64" />
  
  <!-- 좌측 저울판 -->
  <path d="M30 100 L70 100 C70 100, 70 115, 50 115 C30 115, 30 100, 30 100 Z" fill="#455A64" />
  
  <!-- 우측 저울판 -->
  <path d="M130 100 L170 100 C170 100, 170 115, 150 115 C130 115, 130 100, 130 100 Z" fill="#455A64" />
  
  <!-- 왼쪽 파란색 공들 -->
  <circle cx="40" cy="80" r="12" fill="#2980B9" />
  <circle cx="60" cy="75" r="12" fill="#3498DB" />
  <circle cx="50" cy="60" r="12" fill="#1ABC9C" />
  
  <!-- 오른쪽 초록색 공들 -->
  <circle cx="140" cy="80" r="12" fill="#27AE60" />
  <circle cx="160" cy="75" r="12" fill="#2ECC71" />
  <circle cx="150" cy="60" r="12" fill="#66BB6A" />
</svg> 